<?xml version="1.0" encoding="utf-8"?>
<!-- Generator: Adobe Illustrator 17.1.0, SVG Export Plug-In . SVG Version: 6.00 Build 0)  -->
<!DOCTYPE svg PUBLIC "-//W3C//DTD SVG 1.1//EN" "http://www.w3.org/Graphics/SVG/1.1/DTD/svg11.dtd">
<svg version="1.1" xmlns="http://www.w3.org/2000/svg" xmlns:xlink="http://www.w3.org/1999/xlink" x="0px" y="0px"
	 viewBox="0 0 141.7 141.7" enable-background="new 0 0 141.7 141.7" xml:space="preserve">
<g id="Layer_2" display="none">
	<rect x="-13" y="-4.3" display="inline" stroke="#000000" stroke-miterlimit="10" width="175" height="192"/>
</g>
<g id="Layer_1">
	<g id="Layer_1_1_" display="none">
		
			<image display="inline" overflow="visible" enable-background="new    " width="600" height="500" xlink:href="7E2F2AC4.png"  transform="matrix(0.3333 0 0 0.3333 -29.0882 -12.5119)">
		</image>
		
			<image display="inline" overflow="visible" enable-background="new    " width="600" height="500" xlink:href="7E2F2AC5.png"  transform="matrix(0.2357 -0.2357 0.2357 0.2357 -242.386 5.9395)">
		</image>
		<rect x="55.7" y="28.5" display="inline" fill="#FFFFFF" width="30.4" height="21.5"/>
	</g>
	<g id="graduacap">
		<g>
			<g>
				<path fill="#FFFFFF" d="M82.3,44.9V38l0.6-0.2l-0.6-0.2l-0.2-0.1l-11.3-3.8l-12.2,4.1l4.5,1.5l0,0l0.5,0.1l1,0.4l0,0l6.3,2
					l6.2-2l0,0l1.4-0.5l0,0l3.3-1.1v6.6l-0.9,1.6l1.2,1.9l1.1-1.9L82.3,44.9z M82,47.2l-0.4-0.8l0.4-0.9l0.5,0.9L82,47.2z"/>
			</g>
			<g>
				<path fill="#FFFFFF" d="M70.8,42.6l-5.7-1.8l-0.3,1.3c-0.1,0.1-0.1,0.2-0.1,0.3c0,1,4.5,3.6,5.9,3.6c1.4,0,6.4-2.6,6.4-3.6
					c0-0.1,0-0.1,0-0.2c0-0.1,0-0.1-0.1-0.2l-0.3-1.2L70.8,42.6L70.8,42.6z"/>
			</g>
		</g>
	</g>
	<g id="arrows">
		
			<rect x="8.3" y="70.8" transform="matrix(0.7071 -0.7071 0.7071 0.7071 -30.0306 70.5832)" fill="#FFFFFF" width="123.8" height="1.4"/>
		<g>
			<polygon fill="#FFFFFF" points="31.3,113.4 30.7,112 29.9,112.8 30.8,114.8 			"/>
		</g>
		<g>
			<polygon fill="#FFFFFF" points="29.8,117.9 28.3,114.4 27.6,115.1 29.4,119.2 			"/>
		</g>
		<g>
			<polygon fill="#FFFFFF" points="30.5,115.7 29.5,113.2 28.8,113.9 30.1,117 			"/>
			<polygon fill="#FFFFFF" points="31.3,113.4 30.7,112 29.9,112.8 30.8,114.8 			"/>
			<polygon fill="#FFFFFF" points="28.3,110.4 29.7,111 29,111.8 26.9,110.9 			"/>
			<polygon fill="#FFFFFF" points="29.8,117.9 28.3,114.4 27.6,115.1 29.4,119.2 			"/>
			<polygon fill="#FFFFFF" points="23.9,111.9 27.3,113.4 26.6,114.1 22.5,112.4 			"/>
			<polygon fill="#FFFFFF" points="26.1,111.2 28.5,112.2 27.8,113 24.7,111.6 			"/>
		</g>
		<polygon fill="#FFFFFF" points="111,25.7 119.2,22.5 114,27.8 112.7,26.7 		"/>
		<path fill="#FFFFFF" stroke="#FFFFFF" stroke-miterlimit="10" d="M116,30.7l3.2-8.2l-8.2,3.2c0,0,1.5,0.7,2.9,2.1
			C115.4,29.2,116,30.7,116,30.7z"/>
		
			<rect x="9.7" y="70.8" transform="matrix(-0.7071 -0.7071 0.7071 -0.7071 71.5743 172.6963)" fill="#FFFFFF" width="123.8" height="1.4"/>
		<g>
			<polygon fill="#FFFFFF" points="113.4,110.4 112,111.1 112.8,111.8 114.8,110.9 			"/>
		</g>
		<g>
			<polygon fill="#FFFFFF" points="117.9,111.9 114.4,113.4 115.1,114.1 119.2,112.4 			"/>
		</g>
		<g>
			<polygon fill="#FFFFFF" points="115.6,111.2 113.2,112.2 113.9,113 117,111.6 			"/>
			<polygon fill="#FFFFFF" points="113.4,110.4 112,111.1 112.8,111.8 114.8,110.9 			"/>
			<polygon fill="#FFFFFF" points="110.4,113.5 111,112 111.8,112.8 110.9,114.8 			"/>
			<polygon fill="#FFFFFF" points="117.9,111.9 114.4,113.4 115.1,114.1 119.2,112.4 			"/>
			<polygon fill="#FFFFFF" points="111.9,117.9 113.4,114.4 114.1,115.1 112.4,119.2 			"/>
			<polygon fill="#FFFFFF" points="111.2,115.7 112.2,113.2 113,114 111.6,117 			"/>
		</g>
		<polygon fill="#FFFFFF" points="25.7,30.7 22.5,22.5 27.8,27.8 26.7,29 		"/>
		<path fill="#FFFFFF" stroke="#FFFFFF" stroke-miterlimit="10" d="M30.7,25.7l-8.2-3.2l3.2,8.2c0,0,0.7-1.5,2.1-2.9
			C29.2,26.4,30.7,25.7,30.7,25.7z"/>
	</g>
	<g id="text">
		<g>
			<path fill="#FFFFFF" d="M45.2,75l0.7,0.7c-1.7,1.5-3.7,2.3-6,2.3c-2.5,0-4.6-0.9-6.3-2.6c-1.7-1.7-2.6-3.8-2.6-6.3
				s0.9-4.6,2.6-6.3c1.7-1.7,3.8-2.6,6.3-2.6c2.3,0,4.3,0.8,6,2.3l-0.7,0.7c-1.5-1.3-3.2-2-5.3-2c-2.2,0-4,0.8-5.6,2.3
				c-1.5,1.5-2.3,3.4-2.3,5.6c0,2.2,0.8,4.1,2.3,5.6c1.5,1.5,3.4,2.3,5.6,2.3C42,77,43.7,76.4,45.2,75z"/>
		</g>
		<g>
			<path fill="#FFFFFF" d="M111.9,75l0.7,0.7c-1.7,1.5-3.7,2.3-6,2.3c-2.5,0-4.6-0.9-6.3-2.6c-1.7-1.7-2.6-3.8-2.6-6.3
				s0.9-4.6,2.6-6.3c1.7-1.7,3.8-2.6,6.3-2.6c2.3,0,4.3,0.8,6,2.3l-0.7,0.7c-1.5-1.3-3.2-2-5.3-2c-2.2,0-4,0.8-5.6,2.3
				c-1.5,1.5-2.3,3.4-2.3,5.6c0,2.2,0.8,4.1,2.3,5.6c1.5,1.5,3.4,2.3,5.6,2.3C108.6,77,110.4,76.4,111.9,75z"/>
		</g>
		<g>
			<path fill="#FFFFFF" d="M55.7,104.2v0.4h-3v2.8h3v0.4h-3v2.8h3v0.4h-3.4v-6.8L55.7,104.2L55.7,104.2z"/>
			<path fill="#FFFFFF" d="M58.6,107.2c-0.5-0.2-0.9-0.4-1.2-0.7c-0.3-0.3-0.4-0.6-0.4-1c0-0.4,0.2-0.7,0.4-1c0.3-0.3,0.6-0.4,1-0.4
				s0.8,0.2,1,0.4c0.2,0.2,0.3,0.3,0.3,0.5l-0.4,0.1c0-0.1-0.1-0.3-0.2-0.4c-0.2-0.2-0.4-0.3-0.8-0.3c-0.3,0-0.6,0.1-0.8,0.3
				c-0.2,0.2-0.3,0.4-0.3,0.8c0,0.3,0.1,0.6,0.3,0.8c0.2,0.2,0.5,0.4,0.8,0.5c0.6,0.2,1,0.4,1.4,0.8c0.4,0.4,0.6,0.9,0.6,1.4
				s-0.2,1-0.6,1.4c-0.4,0.4-0.9,0.6-1.4,0.6c-0.6,0-1-0.2-1.4-0.6c-0.3-0.3-0.5-0.7-0.6-1.1l0.4-0.1c0,0.4,0.2,0.7,0.5,1
				c0.3,0.3,0.7,0.5,1.2,0.5c0.4,0,0.8-0.2,1.2-0.5c0.3-0.3,0.5-0.7,0.5-1.2c0-0.4-0.2-0.8-0.5-1.2C59.3,107.6,59,107.4,58.6,107.2z
				"/>
			<path fill="#FFFFFF" d="M63,104.5v6.5h-0.4v-6.5h-1.7v-0.4h3.8v0.4H63z"/>
			<path fill="#FFFFFF" d="M65.4,110.4c0.1,0.1,0.1,0.2,0.1,0.3c0,0.1,0,0.2-0.1,0.3c-0.1,0.1-0.2,0.1-0.3,0.1c-0.1,0-0.2,0-0.3-0.1
				c-0.1-0.1-0.1-0.2-0.1-0.3c0-0.1,0-0.2,0.1-0.3c0.1-0.1,0.2-0.1,0.3-0.1C65.3,110.3,65.3,110.3,65.4,110.4z"/>
			<path fill="#FFFFFF" d="M70.3,109.2c0.5-0.4,0.9-0.7,1.2-0.9c0.4-0.3,0.7-0.6,1-0.9c0.3-0.4,0.5-0.7,0.5-1.2
				c0-0.4-0.2-0.8-0.5-1.2c-0.3-0.3-0.7-0.5-1.2-0.5c-0.4,0-0.8,0.2-1.2,0.5c-0.3,0.3-0.4,0.6-0.5,1l-0.4-0.2
				c0.1-0.4,0.2-0.8,0.6-1.1c0.4-0.4,0.9-0.6,1.4-0.6s1,0.2,1.4,0.6c0.4,0.4,0.6,0.9,0.6,1.4c0,0.6-0.2,1-0.6,1.5
				c-0.3,0.3-0.6,0.6-1,0.8c-0.4,0.3-0.8,0.6-1.2,0.9c-0.4,0.3-0.7,0.8-0.8,1.3h3.6v0.4h-4C69.5,110.1,69.8,109.5,70.3,109.2z"/>
			<path fill="#FFFFFF" d="M79.1,108.8c0,0.6-0.2,1.2-0.7,1.7s-1,0.7-1.7,0.7c-0.6,0-1.2-0.2-1.7-0.7c-0.4-0.4-0.7-1-0.7-1.7v-2.3
				c0-0.6,0.2-1.2,0.7-1.7c0.4-0.4,1-0.7,1.7-0.7c0.6,0,1.2,0.2,1.7,0.7c0.4,0.5,0.7,1,0.7,1.7V108.8z M78.7,106.5
				c0-0.5-0.2-1-0.6-1.4c-0.4-0.4-0.8-0.6-1.4-0.6c-0.5,0-1,0.2-1.4,0.6c-0.4,0.4-0.6,0.8-0.6,1.4v2.3c0,0.5,0.2,1,0.6,1.4
				c0.4,0.4,0.8,0.6,1.4,0.6c0.5,0,1-0.2,1.4-0.6c0.4-0.4,0.6-0.8,0.6-1.4V106.5z"/>
			<path fill="#FFFFFF" d="M82.5,104.2v6.8h-0.4v-6.2h-0.4l0.5-0.7H82.5z"/>
			<path fill="#FFFFFF" d="M87.2,107.2h-0.3v-0.4c0.3,0,0.5,0,0.6-0.1c0.2-0.1,0.4-0.2,0.6-0.4c0.2-0.2,0.3-0.5,0.3-0.8
				c0-0.3-0.1-0.6-0.3-0.8c-0.2-0.2-0.4-0.3-0.8-0.3c-0.3,0-0.5,0.1-0.8,0.3c-0.1,0.1-0.2,0.2-0.2,0.4l-0.4-0.2
				c0.1-0.2,0.2-0.4,0.3-0.5c0.3-0.3,0.6-0.4,1-0.4c0.4,0,0.8,0.2,1,0.4s0.4,0.6,0.4,1c0,0.4-0.1,0.7-0.3,1
				c-0.2,0.2-0.4,0.4-0.6,0.5c0.4,0.1,0.8,0.4,1,0.6c0.4,0.4,0.6,0.9,0.6,1.5c0,0.6-0.2,1-0.6,1.4c-0.4,0.4-0.9,0.6-1.4,0.6
				c-0.6,0-1-0.2-1.4-0.6c-0.3-0.3-0.5-0.7-0.6-1.1l0.4-0.2c0,0.4,0.2,0.7,0.5,1c0.3,0.3,0.7,0.5,1.2,0.5s0.8-0.2,1.2-0.5
				c0.3-0.3,0.5-0.7,0.5-1.2c0-0.4-0.2-0.8-0.5-1.2C88.3,107.5,87.8,107.3,87.2,107.2z"/>
		</g>
	</g>
</g>
</svg>
